<svg xmlns="http://www.w3.org/2000/svg" width="32" height="32" fill="#000000" viewBox="0 0 256 256"><path d="M224,72a48.05,48.05,0,0,1-48-48,8,8,0,0,0-8-8H128a8,8,0,0,0-8,8V156a20,20,0,1,1-28.57-18.08A8,8,0,0,0,96,130.69V88a8,8,0,0,0-9.4-7.88C50.91,86.48,24,119.1,24,156a76,76,0,0,0,152,0V116.29A103.25,103.25,0,0,0,224,128a8,8,0,0,0,8-8V80A8,8,0,0,0,224,72Zm-8,39.64a87.19,87.19,0,0,1-43.33-16.15A8,8,0,0,0,160,102v54a60,60,0,0,1-120,0c0-25.9,16.64-49.13,40-57.6v27.67A36,36,0,1,0,136,156V32h24.5A64.14,64.14,0,0,0,216,87.5Z"></path><!-- Code injected by live-server -->
<script>
	// <![CDATA[  <-- For SVG support
	if ('WebSocket' in window) {
		(function () {
			function refreshCSS() {
				var sheets = [].slice.call(document.getElementsByTagName("link"));
				var head = document.getElementsByTagName("head")[0];
				for (var i = 0; i < sheets.length; ++i) {
					var elem = sheets[i];
					var parent = elem.parentElement || head;
					parent.removeChild(elem);
					var rel = elem.rel;
					if (elem.href && typeof rel != "string" || rel.length == 0 || rel.toLowerCase() == "stylesheet") {
						var url = elem.href.replace(/(&|\?)_cacheOverride=\d+/, '');
						elem.href = url + (url.indexOf('?') >= 0 ? '&' : '?') + '_cacheOverride=' + (new Date().valueOf());
					}
					parent.appendChild(elem);
				}
			}
			var protocol = window.location.protocol === 'http:' ? 'ws://' : 'wss://';
			var address = protocol + window.location.host + window.location.pathname + '/ws';
			var socket = new WebSocket(address);
			socket.onmessage = function (msg) {
				if (msg.data == 'reload') window.location.reload();
				else if (msg.data == 'refreshcss') refreshCSS();
			};
			if (sessionStorage && !sessionStorage.getItem('IsThisFirstTime_Log_From_LiveServer')) {
				console.log('Live reload enabled.');
				sessionStorage.setItem('IsThisFirstTime_Log_From_LiveServer', true);
			}
		})();
	}
	else {
		console.error('Upgrade your browser. This Browser is NOT supported WebSocket for Live-Reloading.');
	}
	// ]]>
</script>
</svg>