<svg xmlns="http://www.w3.org/2000/svg" xml:space="preserve" version="1.0" viewBox="0 0 1624.9 1262.2"><path fill="none" d="M300.4 119.1h1024v1024h-1024z" style="fill:#fff;fill-opacity:0"/><path d="M4.5-13.3h200v200H4.5z" style="fill:none" transform="matrix(10.18839 0 0 10.18839 -251.52 -252.793)"/><path d="M104.5 132.1c-24.9 0-45.3-20.5-45.3-45.4 0-5.6 1-10.9 2.9-15.9l26.5 53.3c.3.7.8 1.3 1.6 1.3s1.3-.6 1.6-1.3L104 96.8c.1-.3.3-.6.6-.6s.4.3.6.6l12.2 27.3c.3.7.8 1.3 1.6 1.3s1.3-.6 1.6-1.3l26.5-53.3c1.9 5 2.9 10.3 2.9 15.9-.2 24.9-20.6 45.4-45.5 45.4m0-55.7c-.3 0-.4-.3-.6-.6l-14.2-32c4.6-1.7 9.6-2.6 14.8-2.6s10.2.9 14.8 2.6l-14.2 32c-.2.4-.3.6-.6.6M90 109.3c-.3 0-.4-.3-.6-.6l-23-46.4C70.5 56 76 50.7 82.7 47l16.6 36.9c.2.6.7.8 1.2.8h8c.6 0 1-.1 1.3-.8L126.4 47c6.6 3.7 12.2 9 16.3 15.3l-23.2 46.4c-.1.3-.3.6-.6.6s-.4-.3-.6-.6l-8.7-19.8c-.3-.7-.7-.8-1.3-.8h-8c-.6 0-1 .1-1.3.8l-8.4 19.8c-.1.3-.3.6-.6.6m14.5 27.4c27.7 0 50-22.3 50-50s-22.3-50-50-50-50 22.3-50 50 22.3 50 50 50" style="fill:#001e50" transform="matrix(10.18839 0 0 10.18839 -251.52 -252.793)"/><!-- Code injected by live-server -->
<script>
	// <![CDATA[  <-- For SVG support
	if ('WebSocket' in window) {
		(function () {
			function refreshCSS() {
				var sheets = [].slice.call(document.getElementsByTagName("link"));
				var head = document.getElementsByTagName("head")[0];
				for (var i = 0; i < sheets.length; ++i) {
					var elem = sheets[i];
					var parent = elem.parentElement || head;
					parent.removeChild(elem);
					var rel = elem.rel;
					if (elem.href && typeof rel != "string" || rel.length == 0 || rel.toLowerCase() == "stylesheet") {
						var url = elem.href.replace(/(&|\?)_cacheOverride=\d+/, '');
						elem.href = url + (url.indexOf('?') >= 0 ? '&' : '?') + '_cacheOverride=' + (new Date().valueOf());
					}
					parent.appendChild(elem);
				}
			}
			var protocol = window.location.protocol === 'http:' ? 'ws://' : 'wss://';
			var address = protocol + window.location.host + window.location.pathname + '/ws';
			var socket = new WebSocket(address);
			socket.onmessage = function (msg) {
				if (msg.data == 'reload') window.location.reload();
				else if (msg.data == 'refreshcss') refreshCSS();
			};
			if (sessionStorage && !sessionStorage.getItem('IsThisFirstTime_Log_From_LiveServer')) {
				console.log('Live reload enabled.');
				sessionStorage.setItem('IsThisFirstTime_Log_From_LiveServer', true);
			}
		})();
	}
	else {
		console.error('Upgrade your browser. This Browser is NOT supported WebSocket for Live-Reloading.');
	}
	// ]]>
</script>
</svg>